<svg width="14" height="16" viewBox="0 0 14 16" fill="none" xmlns="http://www.w3.org/2000/svg">
<path d="M11.8088 5.48001L5.84625 1.10501C5.38056 0.763998 4.82951 0.558629 4.25423 0.511672C3.67894 0.464715 3.10189 0.578005 2.58706 0.838981C2.07223 1.09996 1.63974 1.49842 1.33754 1.99019C1.03534 2.48195 0.875241 3.04781 0.875 3.62501V12.375C0.875103 12.9525 1.03521 13.5186 1.33755 14.0106C1.63989 14.5026 2.07263 14.9012 2.58776 15.1621C3.10289 15.4231 3.68026 15.5362 4.25578 15.489C4.8313 15.4417 5.38247 15.2359 5.84812 14.8944L11.8106 10.5194C12.2064 10.2291 12.5283 9.84973 12.7501 9.41192C12.972 8.97411 13.0876 8.49019 13.0876 7.99938C13.0876 7.50857 12.972 7.02466 12.7501 6.58684C12.5283 6.14903 12.2064 5.76963 11.8106 5.47938L11.8088 5.48001ZM11.0687 9.51126L5.10625 13.8863C4.82688 14.0904 4.49648 14.2133 4.15161 14.2412C3.80674 14.2692 3.46085 14.2012 3.15223 14.0448C2.84361 13.8883 2.5843 13.6495 2.403 13.3548C2.2217 13.0601 2.12549 12.721 2.125 12.375V3.62501C2.12153 3.27835 2.21593 2.93775 2.39736 2.64233C2.57879 2.34692 2.83987 2.10869 3.15062 1.95501C3.41493 1.82056 3.70721 1.75033 4.00375 1.75001C4.40118 1.75153 4.78764 1.88056 5.10625 2.11813L11.0687 6.49313C11.3059 6.66732 11.4988 6.89488 11.6317 7.15742C11.7646 7.41997 11.8339 7.71011 11.8339 8.00438C11.8339 8.29866 11.7646 8.5888 11.6317 8.85134C11.4988 9.11388 11.3059 9.34145 11.0687 9.51563V9.51126Z" fill="#8D0019"/>
</svg>
