<svg width="15" height="16" viewBox="0 0 15 16" fill="none" xmlns="http://www.w3.org/2000/svg">
<g clip-path="url(#clip0)">
<path d="M10 0.5H9.91875C9.63904 0.502657 9.36813 0.598133 9.14856 0.771437C8.92899 0.944741 8.77319 1.18606 8.70563 1.4575C8.63327 1.72177 8.47608 1.95495 8.25824 2.12116C8.04041 2.28737 7.774 2.3774 7.5 2.3774C7.226 2.3774 6.95959 2.28737 6.74176 2.12116C6.52392 1.95495 6.36673 1.72177 6.29437 1.4575C6.22681 1.18606 6.07101 0.944741 5.85144 0.771437C5.63187 0.598133 5.36096 0.502657 5.08125 0.5L5 0.5C4.1715 0.500992 3.37722 0.830551 2.79139 1.41639C2.20555 2.00222 1.87599 2.7965 1.875 3.625V13.625C1.875 14.1223 2.07254 14.5992 2.42417 14.9508C2.77581 15.3025 3.25272 15.5 3.75 15.5H5.08125C5.36096 15.4973 5.63187 15.4019 5.85144 15.2286C6.07101 15.0553 6.22681 14.8139 6.29437 14.5425C6.36673 14.2782 6.52392 14.045 6.74176 13.8788C6.95959 13.7126 7.226 13.6226 7.5 13.6226C7.774 13.6226 8.04041 13.7126 8.25824 13.8788C8.47608 14.045 8.63327 14.2782 8.70563 14.5425C8.77319 14.8139 8.92899 15.0553 9.14856 15.2286C9.36813 15.4019 9.63904 15.4973 9.91875 15.5H11.25C11.7473 15.5 12.2242 15.3025 12.5758 14.9508C12.9275 14.5992 13.125 14.1223 13.125 13.625V3.625C13.124 2.7965 12.7944 2.00222 12.2086 1.41639C11.6228 0.830551 10.8285 0.500992 10 0.5V0.5ZM11.25 14.25L9.91063 14.2106C9.76383 13.6803 9.44614 13.2132 9.00682 12.8817C8.56751 12.5503 8.03112 12.3731 7.48083 12.3776C6.93055 12.3821 6.39711 12.568 5.96326 12.9065C5.52941 13.2451 5.21938 13.7173 5.08125 14.25H3.75C3.58424 14.25 3.42527 14.1842 3.30806 14.0669C3.19085 13.9497 3.125 13.7908 3.125 13.625V11.125H4.375C4.54076 11.125 4.69973 11.0592 4.81694 10.9419C4.93415 10.8247 5 10.6658 5 10.5C5 10.3342 4.93415 10.1753 4.81694 10.0581C4.69973 9.94085 4.54076 9.875 4.375 9.875H3.125V3.625C3.125 3.12772 3.32254 2.65081 3.67417 2.29917C4.02581 1.94754 4.50272 1.75 5 1.75L5.08937 1.78937C5.23576 2.31652 5.55062 2.78128 5.98589 3.11272C6.42115 3.44416 6.95291 3.62408 7.5 3.625C8.05447 3.62028 8.59223 3.43456 9.03144 3.0961C9.47065 2.75764 9.78727 2.28497 9.93312 1.75H10C10.4973 1.75 10.9742 1.94754 11.3258 2.29917C11.6775 2.65081 11.875 3.12772 11.875 3.625V9.875H10.625C10.4592 9.875 10.3003 9.94085 10.1831 10.0581C10.0658 10.1753 10 10.3342 10 10.5C10 10.6658 10.0658 10.8247 10.1831 10.9419C10.3003 11.0592 10.4592 11.125 10.625 11.125H11.875V13.625C11.875 13.7908 11.8092 13.9497 11.6919 14.0669C11.5747 14.1842 11.4158 14.25 11.25 14.25Z" fill="white"/>
<path d="M8.125 9.875H6.875C6.70924 9.875 6.55027 9.94085 6.43306 10.0581C6.31585 10.1753 6.25 10.3342 6.25 10.5C6.25 10.6658 6.31585 10.8247 6.43306 10.9419C6.55027 11.0592 6.70924 11.125 6.875 11.125H8.125C8.29076 11.125 8.44973 11.0592 8.56694 10.9419C8.68415 10.8247 8.75 10.6658 8.75 10.5C8.75 10.3342 8.68415 10.1753 8.56694 10.0581C8.44973 9.94085 8.29076 9.875 8.125 9.875Z" fill="white"/>
</g>
<defs>
<clipPath id="clip0">
<rect width="15" height="15" fill="white" transform="translate(0 0.5)"/>
</clipPath>
</defs>
</svg>
