<svg width="835" height="207" viewBox="0 0 835 207" fill="none" xmlns="http://www.w3.org/2000/svg">
<path d="M32.136 2.4H0.167999L31.272 204H78.504L109.608 2.4H80.52L56.328 166.848L32.136 2.4Z" fill="#EFE8F4"/>
<path d="M170.475 31.2H225.195V2.4H138.795V204H225.195V175.2H170.475V116.16H213.963V87.36H170.475V31.2Z" fill="#EFE8F4"/>
<path d="M326.906 204H359.45V2.4H331.226V123.072L298.682 2.4H258.938V204H287.45V57.984L326.906 204Z" fill="#EFE8F4"/>
<path d="M425.621 48.768C425.621 34.368 431.957 28.896 442.037 28.896C452.117 28.896 458.453 34.368 458.453 48.768V157.632C458.453 172.032 452.117 177.504 442.037 177.504C431.957 177.504 425.621 172.032 425.621 157.632V48.768ZM393.941 155.616C393.941 187.872 410.933 206.304 442.037 206.304C473.141 206.304 490.133 187.872 490.133 155.616V50.784C490.133 18.528 473.141 0.0960083 442.037 0.0960083C410.933 0.0960083 393.941 18.528 393.941 50.784V155.616Z" fill="#EFE8F4"/>
<path d="M568.896 2.4H524.832V204H552.48V61.44L576.096 204H606.048L627.936 59.424V204H657.888V2.4H613.824L592.224 145.536L568.896 2.4Z" fill="#EFE8F4"/>
<path d="M802.835 51.936C802.835 110.112 740.051 119.904 740.051 179.232V204H831.635V175.2H771.731C771.443 173.76 771.443 172.32 771.443 170.88C771.443 137.76 834.515 114.144 834.515 50.784C834.515 18.528 818.387 0.0960083 787.283 0.0960083C756.179 0.0960083 740.051 18.528 740.051 50.784V70.368H770.003V48.768C770.003 34.368 776.339 28.896 786.419 28.896C796.499 28.896 802.835 33.792 802.835 51.936Z" fill="#EFE8F4"/>
</svg>
